<?xml version="1.0" encoding="UTF-8" ?>
<!DOCTYPE svg PUBLIC "-//W3C//DTD SVG 1.1//EN" "http://www.w3.org/Graphics/SVG/1.1/DTD/svg11.dtd">
<svg width="563pt" height="563pt" viewBox="0 0 563 563" version="1.1" xmlns="http://www.w3.org/2000/svg">
<path fill="#fffefe" d=" M 0.00 0.00 L 563.00 0.00 L 563.00 563.00 L 0.00 563.00 L 0.00 0.00 Z" />
<path fill="#ff0202" d=" M 269.93 120.13 C 273.01 109.44 279.22 99.06 289.05 93.35 C 289.12 99.55 289.06 105.75 289.07 111.96 C 289.00 118.95 291.23 125.70 293.83 132.11 C 297.99 141.75 303.77 150.58 309.85 159.10 C 322.65 176.94 337.22 193.47 349.16 211.93 C 357.76 225.21 365.27 239.95 366.32 256.01 C 366.78 260.70 365.76 265.36 364.55 269.87 C 384.05 273.71 403.17 279.65 421.38 287.62 C 439.39 295.76 456.83 306.13 470.35 320.76 C 480.44 331.73 488.02 345.84 488.15 361.04 C 488.55 375.68 482.05 389.68 472.73 400.68 C 459.60 416.20 442.01 427.22 423.80 435.86 C 389.42 451.81 351.78 459.52 314.18 462.80 C 264.42 466.48 213.61 462.23 166.05 446.57 C 142.82 438.59 119.96 427.89 101.56 411.31 C 89.17 400.02 78.84 385.05 77.52 367.91 C 75.95 353.01 82.69 338.50 92.28 327.45 C 106.24 311.32 124.89 300.06 143.94 290.90 C 161.89 282.30 180.82 275.94 199.97 270.59 C 200.98 279.15 205.96 286.50 210.38 293.65 C 228.67 321.32 251.23 345.93 268.96 373.98 C 274.83 383.50 280.61 394.23 278.67 405.83 C 287.87 399.61 293.13 388.91 294.52 378.09 C 296.44 362.35 292.78 346.29 285.72 332.22 C 271.01 302.86 244.43 281.53 229.78 252.14 C 220.31 233.49 217.80 211.03 224.64 191.09 C 227.86 181.73 233.82 172.87 242.53 167.87 C 242.73 176.78 241.82 185.80 243.56 194.61 C 245.78 204.48 250.73 213.47 256.17 221.90 C 271.97 245.67 292.85 265.49 309.17 288.87 C 314.68 297.08 319.90 305.78 322.12 315.52 C 323.80 322.61 322.90 329.93 323.18 337.13 C 332.54 332.13 337.71 321.95 339.96 311.96 C 341.54 304.12 342.19 296.00 341.10 288.04 C 339.80 276.47 335.10 265.58 329.30 255.59 C 313.05 228.62 288.69 207.08 275.54 178.15 C 267.24 160.19 264.77 139.33 269.93 120.13 Z" />
</svg>
