<?xml version="1.0" standalone="no"?>
<!DOCTYPE svg PUBLIC "-//W3C//DTD SVG 20010904//EN"
 "http://www.w3.org/TR/2001/REC-SVG-20010904/DTD/svg10.dtd">
<svg version="1.0" xmlns="http://www.w3.org/2000/svg"
 width="563.000000pt" height="563.000000pt" viewBox="0 0 563.000000 563.000000"
 preserveAspectRatio="xMidYMid meet">
<metadata>
Created by potrace 1.12, written by Peter Selinger 2001-2015
</metadata>
<g transform="translate(0.000000,563.000000) scale(0.100000,-0.100000)"
fill="#000000" stroke="none">
<path d="M2814 4627 c-63 -58 -120 -162 -139 -254 -19 -88 -19 -259 0 -347 38
-181 131 -351 326 -596 269 -338 348 -471 384 -645 41 -197 -10 -418 -119
-511 -22 -19 -43 -34 -48 -34 -4 0 -8 33 -8 73 -1 213 -64 330 -382 707 -197
234 -287 356 -347 470 -63 122 -73 158 -80 310 l-6 125 -47 -44 c-128 -118
-186 -352 -140 -572 38 -185 115 -322 337 -599 177 -222 224 -288 283 -400
109 -204 135 -423 72 -592 -18 -49 -110 -168 -130 -168 -4 0 -10 35 -12 78 -7
122 -68 228 -322 562 -328 433 -363 482 -421 596 -19 38 -35 80 -35 93 0 15
-5 21 -14 18 -7 -3 -47 -15 -87 -27 -500 -147 -895 -387 -1039 -629 -57 -95
-80 -175 -80 -271 0 -427 532 -791 1380 -945 92 -17 393 -45 540 -51 570 -21
1230 111 1628 327 383 206 583 482 544 752 -55 381 -481 681 -1208 852 -20 4
-21 8 -12 47 23 101 -14 268 -94 418 -50 92 -164 260 -261 383 -213 269 -325
437 -374 563 -23 60 -27 88 -32 214 l-6 145 -51 -48z"/>
</g>
</svg>
